<?xml version="1.0" encoding="utf-8"?>
<!-- Generator: Adobe Illustrator 25.0.1, SVG Export Plug-In . SVG Version: 6.00 Build 0)  -->
<svg version="1.1" id="projects" xmlns="http://www.w3.org/2000/svg" xmlns:xlink="http://www.w3.org/1999/xlink" x="0px" y="0px"
	 viewBox="0 0 45.1 45.1" style="enable-background:new 0 0 45.1 45.1;" xml:space="preserve">
<style type="text/css">
	.st0{fill:#EA1D2C;}
	.st1{fill:#1B1834;}
</style>
<path class="st0" d="M22.5,25.8c-0.1,0-0.2,0-0.3,0c0,0,0,0,0,0c0,0,0,0,0,0c0,0,0,0,0,0c0,0,0,0,0,0c0,0,0,0,0,0l-5-1.6
	c-0.4-0.1-0.7-0.5-0.7-1V16c0-0.3,0.2-0.6,0.4-0.8c0.3-0.2,0.6-0.2,0.9-0.1l4.7,1.5l4.7-1.5c0.3-0.1,0.6,0,0.9,0.1
	c0.3,0.2,0.4,0.5,0.4,0.8v7.3c0,0.4-0.3,0.8-0.7,1l-5,1.6c0,0,0,0,0,0c0,0,0,0,0,0c0,0,0,0,0,0c0,0,0,0,0,0c0,0,0,0,0,0h0
	C22.7,25.8,22.6,25.8,22.5,25.8C22.6,25.8,22.6,25.8,22.5,25.8C22.6,25.8,22.6,25.8,22.5,25.8C22.6,25.8,22.6,25.8,22.5,25.8
	C22.6,25.8,22.6,25.8,22.5,25.8z M23.6,18.3v5.1l3-0.9v-5.1L23.6,18.3z M18.6,22.5l3,0.9v-5.1l-3-0.9V22.5z"/>
<path class="st1" d="M43.7,37.8H1.4c-0.6,0-1-0.5-1-1c0-0.6,0.5-1,1-1h42.3c0.6,0,1,0.5,1,1C44.7,37.4,44.3,37.8,43.7,37.8z
	 M39.8,33.6H26.1c-0.6,0-1-0.5-1-1c0-0.6,0.5-1,1-1h12.8V9.3H6.3v22.3H19c0.6,0,1,0.5,1,1c0,0.6-0.5,1-1,1H5.3c-0.6,0-1-0.5-1-1V8.3
	c0-0.6,0.5-1,1-1h34.5c0.6,0,1,0.5,1,1v24.3C40.8,33.1,40.4,33.6,39.8,33.6z M22.6,33.6h-0.2c-0.6,0-1-0.5-1-1s0.5-1,1-1h0.2
	c0.6,0,1,0.5,1,1S23.2,33.6,22.6,33.6z"/>
</svg>
