<?xml version="1.0" encoding="utf-8"?>
<!-- Generator: Adobe Illustrator 24.0.2, SVG Export Plug-In . SVG Version: 6.00 Build 0)  -->
<svg version="1.1" id="Instructor" xmlns="http://www.w3.org/2000/svg" xmlns:xlink="http://www.w3.org/1999/xlink" x="0px" y="0px"
	 viewBox="0 0 47.7 47.7" style="enable-background:new 0 0 47.7 47.7;" xml:space="preserve">
<style type="text/css">
	.st0{fill:#E21928;}
	.st1{fill:#FEFEFE;}
	.st2{fill:none;stroke:#000000;stroke-width:2.7;stroke-linecap:round;stroke-linejoin:round;stroke-miterlimit:13.3333;}
	.st3{fill:none;stroke:#E21928;stroke-width:2.7;stroke-miterlimit:10;}
	.st4{fill:none;stroke:#FF0000;stroke-width:2.7;stroke-linecap:round;stroke-linejoin:round;stroke-miterlimit:13.3333;}
</style>
<g>
	<g>
		<g>
			<path d="M22.5,26.5c-0.7,0.4-0.9,1.3-0.5,2c0.3,0.5,0.8,0.7,1.3,0.7c0.2,0,0.5-0.1,0.7-0.2c3.5-2,8.2-5.3,9.3-11.4
				c0.4-2.3-0.2-5.9-2.4-8.7c-1.8-2.1-4.2-3.3-7-3.3c-3.1,0-5.8,1.4-7.4,3.9c-1.9,2.8-2.2,6.7-0.8,10c0.3,0.7,1.2,1.1,1.9,0.8
				c0.7-0.3,1.1-1.2,0.8-1.9c-1-2.4-0.8-5.3,0.5-7.3c0.8-1.2,2.3-2.5,5-2.5c2,0,3.6,0.7,4.8,2.2c1.6,1.9,2.1,4.6,1.8,6.3
				C29.7,20.8,27.2,23.8,22.5,26.5z"/>
			<path d="M41.6,32.6c-1.6-4.3-8.7-7-9.4-7.3c-0.7-0.3-1.5,0.1-1.8,0.8c0,0.1-3.6,7.8-6.4,12.4c-2.8-4.6-6.4-12.3-6.4-12.4
				c-0.3-0.7-1.1-1-1.8-0.8c-0.8,0.3-7.8,3-9.5,7.3c-1,2.7-1,5.2-0.9,7.5c0,0.4,0,0.9,0,1.3c0,0.8,0.7,1.5,1.5,1.5
				c0.8,0,1.5-0.7,1.5-1.5c0-0.5,0-0.9,0-1.4c0-2.2-0.1-4.2,0.7-6.4c0.8-2.1,4.3-4,6.5-5c1.4,2.9,4.9,10.1,7.3,13.4
				c0.6,0.7,1.8,0.7,2.4,0c2.5-3.3,5.9-10.5,7.3-13.4c2.2,1,5.7,2.9,6.5,5c0.6,1.6,1,5,1,10.2H6.4c-0.8,0-1.5,0.7-1.5,1.5
				c0,0.8,0.7,1.5,1.5,1.5h35c0.8,0,1.5-0.7,1.5-1.5C42.8,41.2,42.7,35.5,41.6,32.6z"/>
			<path class="st0" d="M10.9,20.7c0.3,1,1,2.4,2.5,3.3c0.9,0.5,1.9,0.8,3,0.8c1.3,0,2.9-0.4,4.5-1.1c0.2,0.1,0.4,0.1,0.7,0.1
				c1.1,0,2-0.9,2-2c0-1.1-0.9-2-2-2c-0.8,0-1.5,0.5-1.8,1.2c-2.2,0.9-3.9,1.1-4.9,0.5c-1.2-0.7-1.3-2.2-1.3-2.2
				c-0.1-0.8-0.7-1.4-1.5-1.4c-0.9,0-1.5-0.2-1.9-0.7c-0.4-0.4-0.6-1-0.6-1.7c0-1.2,0.8-3,2.9-3c0.7,0,1.3-0.5,1.4-1.2
				c0.1-0.3,1.7-7.5,9.6-7.5c8.3,0,10.1,6.9,10.2,7.2c0.2,0.7,0.7,1.1,1.4,1.1c2,0,3.1,1.7,3.1,3.2c0,0.7-0.2,1.3-0.6,1.7
				c-0.5,0.5-1.2,0.7-2.1,0.7c-0.8,0-1.5,0.7-1.5,1.5c0,0.8,0.7,1.5,1.5,1.5c2.2,0,3.5-0.9,4.2-1.7c0.9-1,1.4-2.3,1.4-3.7
				c0-2.7-1.8-5.5-4.9-6.1C35,6,31.2,0.9,23.5,0.9c-7.5,0-11.1,5.2-12.2,8.8c-2.9,0.6-4.6,3.3-4.6,5.9c0,1.4,0.5,2.7,1.4,3.6
				C8.6,19.8,9.5,20.5,10.9,20.7z"/>
		</g>
	</g>
</g>
</svg>
