<?xml version="1.0" encoding="utf-8"?>
<!-- Generator: Adobe Illustrator 24.0.2, SVG Export Plug-In . SVG Version: 6.00 Build 0)  -->
<svg version="1.1" id="Instructor" xmlns="http://www.w3.org/2000/svg" xmlns:xlink="http://www.w3.org/1999/xlink" x="0px" y="0px"
	 viewBox="0 0 47.7 47.7" style="enable-background:new 0 0 47.7 47.7;" xml:space="preserve">
<style type="text/css">
	.st0{fill:#E21928;}
	.st1{fill:#FEFEFE;}
	.st2{fill:none;stroke:#000000;stroke-width:2.7;stroke-linecap:round;stroke-linejoin:round;stroke-miterlimit:13.3333;}
	.st3{fill:none;stroke:#E21928;stroke-width:2.7;stroke-miterlimit:10;}
	.st4{fill:none;stroke:#FF0000;stroke-width:2.7;stroke-linecap:round;stroke-linejoin:round;stroke-miterlimit:13.3333;}
</style>
<g>
	<path d="M47.1,38.1c-0.9,0-1.8,0-2.7,0c-0.2,0-0.4-0.1-0.5-0.3c-0.7-1.5-1.9-2.6-3.4-3.1c-0.9-0.3-1.8-0.3-2.7-0.3h-0.4
		c1.3-0.8,1.8-1.3,2.3-2.1c1-1.5,1.2-3.2,0.9-4.9c-0.4-2.4-1.8-4-4.1-4.7c-2.3-0.7-4.4-0.1-6,1.7c-1.6,1.7-1.7,3.8-1.2,6
		c0.4,1.8,1.5,3,3.2,3.8c0,0-0.1,0-0.1,0c-0.4,0-0.7,0-1.1,0c-2.5,0-4.3,1.2-5.4,3.5c-0.1,0.2-0.2,0.2-0.4,0.2c-1.3,0-2.5,0-3.8,0
		c-0.2,0-0.3-0.1-0.3-0.3c0-1,0-2.1,0-3.1c-0.1-2.4-1.3-4-3.5-5c-0.8-0.4-1.6-0.5-2.4-0.5h-1.2c1.3-0.7,2.3-1.7,2.8-3
		c0.5-1,0.5-2.1,0.5-3.1c0-3.3-2.8-6-6.1-5.8c-2.4,0.2-4.1,1.4-5,3.6c-0.4,0.9-0.4,1.9-0.4,2.9c0.1,2.3,1.1,4,3.1,5.1
		c0.1,0,0.2,0.1,0.3,0.1c0,0,0,0,0,0.1c-0.6,0-1.1,0-1.7,0c-3,0.2-5.4,2.7-5.4,5.7c0,1,0,2,0,3c0,0.2,0,0.3-0.3,0.3
		c-0.6,0-1.2,0-1.8,0c-0.2,0-0.2,0-0.2,0.2c0,0.7,0,1.4,0,2c0,0.3,0.1,0.4,0.4,0.4c8.2,0,16.3,0,24.5,0c0.3,0,0.4,0.1,0.4,0.4
		c0,1.3,0,2.6,0,3.8c0,0.2,0.1,0.3,0.3,0.3c0.5,0,18.2,0,18.4,0c0.3,0,0.3-0.1,0.3-0.3c0-1.3,0-2.6,0-3.9c0-0.2,0.1-0.3,0.3-0.3
		c0.8,0,1.6,0,2.4,0c0.2,0,0.3,0,0.3-0.3c0-0.7,0-1.4,0-2.1C47.5,38.1,47.4,38.1,47.1,38.1z M8.9,23.9v-0.5
		c-0.1-1.2,0.3-2.2,1.3-2.9c1.9-1.3,4.6-0.1,4.8,2.2c0.1,0.9,0.1,1.8-0.4,2.6c-0.7,1.2-2.1,1.8-3.5,1.4C9.8,26.5,8.9,25.3,8.9,23.9z
		 M18.8,37.7c0,0.3,0,0.4-0.3,0.4c-2.2,0-4.3,0-6.5,0c-2.2,0-4.3,0-6.4,0c-0.3,0-0.4-0.1-0.3-0.4c0-0.9,0-1.8,0-2.7
		c0-1.8,1.4-3.2,3.2-3.2h7.3c1.8,0,3.2,1.4,3.2,3.2C18.8,35.9,18.8,36.8,18.8,37.7z M31.9,29.1c0-0.5,0-1.1,0.1-1.6
		c0.4-1.4,1.8-2.5,3.2-2.3c1.6,0.2,2.8,1.3,2.9,2.9c0,0.2,0,0.4,0,0.6c0,1.6-0.7,2.7-2,3.2C34.1,32.7,31.9,31.2,31.9,29.1z
		 M28.2,40.2c0-1.8,1.4-3.2,3.2-3.2h7.3c1.8,0,3.2,1.4,3.2,3.2c0,0.8,0,1.5,0,2.3H28.2V40.2z"/>
	<path d="M26.7,12.7c0,0.7-0.6,1.3-1.3,1.3c-0.7,0-1.4-0.6-1.3-1.4c0-0.8,0.6-1.3,1.4-1.3C26.1,11.4,26.7,12,26.7,12.7z"/>
	<path d="M30.4,12.7c0,0.7-0.6,1.3-1.3,1.3c-0.7,0-1.3-0.6-1.3-1.3c0-0.8,0.6-1.3,1.4-1.3C29.8,11.4,30.4,12,30.4,12.7z"/>
	<path d="M34.1,12.7c0,0.7-0.6,1.3-1.3,1.4c-0.7,0-1.4-0.6-1.4-1.4c0-0.7,0.6-1.3,1.3-1.3C33.5,11.4,34.1,12,34.1,12.7z"/>
	<path class="st0" d="M41.3,8.8C40,6.5,38.1,5,35.8,3.9C32.3,2.3,28.7,2.1,25,3c-2.6,0.6-4.9,1.9-6.8,3.9c-1.5,1.6-2.4,3.5-2.4,5.7
		c0,2.7,1,4.9,3,6.7c0.2,0.2,0.3,0.4,0.3,0.7c-0.1,1.2-0.2,2.4-0.3,3.6c-0.1,0.7,0.2,1.2,0.7,1.4c0.5,0.3,1.1,0.2,1.6-0.3
		c0.9-0.8,1.8-1.6,2.7-2.4c0.1-0.1,0.3-0.2,0.5-0.1c1.5,0.5,3.1,0.7,4.7,0.7c0.7,0,1.3,0,2-0.1c0.6-0.1,1.2-0.2,1.8-0.3
		c2.7-0.7,5.2-1.9,7.1-4C42.4,15.8,43,12,41.3,8.8z M37.9,16.8c-1.6,1.7-3.6,2.7-5.9,3.2c-2.6,0.6-5.2,0.4-7.7-0.5
		c-0.5-0.2-1-0.1-1.5,0.3c-0.3,0.3-0.7,0.6-1,0.9c0-0.5,0.1-0.9,0.1-1.4c0.1-0.6-0.2-1.1-0.7-1.5c-1.8-1.3-2.7-3.1-2.7-5.3
		c0-1.7,0.9-3.1,2.1-4.3c1.6-1.6,3.6-2.4,5.8-2.8c2.8-0.5,5.5-0.2,8.2,0.9c1.4,0.6,2.7,1.5,3.6,2.8C40.1,11.6,40,14.5,37.9,16.8z"/>
	<path class="st1" d="M26.7,12.7c0,0.7-0.6,1.3-1.3,1.3c-0.7,0-1.4-0.6-1.3-1.4c0-0.8,0.6-1.3,1.4-1.3C26.1,11.4,26.7,12,26.7,12.7z
		"/>
	<path class="st1" d="M30.4,12.7c0,0.7-0.6,1.3-1.3,1.3c-0.7,0-1.3-0.6-1.3-1.3c0-0.8,0.6-1.3,1.4-1.3C29.8,11.4,30.4,12,30.4,12.7z
		"/>
	<path class="st1" d="M34.1,12.7c0,0.7-0.6,1.3-1.3,1.4c-0.7,0-1.4-0.6-1.4-1.4c0-0.7,0.6-1.3,1.3-1.3C33.5,11.4,34.1,12,34.1,12.7z
		"/>
	<path class="st0" d="M34.1,12.7c0,0.7-0.6,1.3-1.3,1.4c-0.7,0-1.4-0.6-1.4-1.4c0-0.7,0.6-1.3,1.3-1.3C33.5,11.4,34.1,12,34.1,12.7z
		"/>
	<path class="st0" d="M26.7,12.7c0,0.7-0.6,1.3-1.3,1.3c-0.7,0-1.4-0.6-1.3-1.4c0-0.8,0.6-1.3,1.4-1.3C26.1,11.4,26.7,12,26.7,12.7z
		"/>
	<path class="st0" d="M30.4,12.7c0,0.7-0.6,1.3-1.3,1.3c-0.7,0-1.3-0.6-1.3-1.3c0-0.8,0.6-1.3,1.4-1.3C29.8,11.4,30.4,12,30.4,12.7z
		"/>
</g>
</svg>
