<?xml version="1.0" encoding="utf-8"?>
<!-- Generator: Adobe Illustrator 25.0.1, SVG Export Plug-In . SVG Version: 6.00 Build 0)  -->
<svg version="1.1" id="Layer_1" xmlns="http://www.w3.org/2000/svg" xmlns:xlink="http://www.w3.org/1999/xlink" x="0px" y="0px"
	 viewBox="0 0 512 512" style="enable-background:new 0 0 512 512;" xml:space="preserve">
<style type="text/css">
	.st0{fill:#FFFFFF;}
	.st1{fill:#1B1834;}
	.st2{fill:#EA1D2C;}
</style>
<rect x="-429.2" y="1881.5" class="st0" width="3566.3" height="1222.5"/>
<g>
	<path class="st1" d="M638.5,2574.1v-104c0-4.4-3.6-8-8-8h-288c-4.4,0-8,3.6-8,8v24h-56c-4.4,0-8,3.6-8,8v72h-48
		c-22.1,0-40,17.9-40,40v304c0,22.1,17.9,40,40,40h416c22.1,0,40-17.9,40-40v-304C678.5,2592,660.5,2574.1,638.5,2574.1z
		 M350.5,2478.1h272v224h-272V2478.1z M286.5,2510.1h48v192h-40c-2.7,0-5.4,0.3-8,0.8V2510.1z M254.5,2918.1c0,13.2-10.8,24-24,24
		h-8c-13.2,0-24-10.8-24-24v-304c0-13.2,10.8-24,24-24h48v120.2c-9.7,7.3-16,18.8-16,31.8V2918.1z M302.5,2918.1
		c0,13.2-10.8,24-24,24h-16.2c5.1-6.7,8.2-15,8.2-24v-176c0-13.2,10.8-24,24-24h16.2c-5.1,6.7-8.2,15-8.2,24V2918.1z M662.5,2918.1
		c0,13.2-10.8,24-24,24H310.3c5.1-6.7,8.2-15,8.2-24v-176c0-13.2,10.8-24,24-24h296c13.2,0,24,10.8,24,24V2918.1z M662.5,2710.3
		c-6.7-5.1-15-8.2-24-8.2v-112c13.2,0,24,10.8,24,24V2710.3z"/>
	<path class="st2" d="M606.5,2870.1h-96c-4.4,0-8,3.6-8,8v32c0,4.4,3.6,8,8,8h96c4.4,0,8-3.6,8-8v-32
		C614.5,2873.7,610.9,2870.1,606.5,2870.1z M598.5,2902.1h-80v-16h80V2902.1z"/>
	<path class="st2" d="M466.4,2548.1v136c0,4.4,3.6,8,8,8h32c4.4,0,8-3.6,8-8v-136c0-4.4-3.6-8-8-8h-32
		C470,2540.1,466.4,2543.7,466.4,2548.1z M482.4,2556.1h16v120h-16V2556.1z"/>
	<path class="st2" d="M382.4,2605.1v79c0,4.4,3.6,8,8,8h32c4.4,0,8-3.6,8-8v-79c0-4.4-3.6-8-8-8h-32
		C386,2597.1,382.4,2600.7,382.4,2605.1z M398.4,2613.1h16v63h-16V2613.1z"/>
	<path class="st2" d="M558.4,2692.1h32c4.4,0,8-3.6,8-8v-184c0-4.4-3.6-8-8-8h-32c-4.4,0-8,3.6-8,8v184
		C550.4,2688.5,554,2692.1,558.4,2692.1z M566.4,2508.1h16v168h-16V2508.1z"/>
</g>
<g id="folder_setting">
	<g>
		<path class="st1" d="M466.8,368.7h-3c-1.4-4.3-3.2-8.6-5.2-12.7l2.1-2.1c3-3,4.6-7,4.6-11.2c0-4.2-1.6-8.2-4.6-11.2l-8.6-8.6
			v-90.6c0-11.1-9-20.1-20.1-20.1h-15.3l12-134.1c0.3-3.4,0.8-8.5-4.2-13.6l-28.7-29.8c-2.9-3.1-4.9-3.8-9-4.1l-11.2-1c0,0,0,0,0,0
			s0,0,0,0L135.9,8.1c-6-0.6-11.8,1.3-16.4,5.1c-4.6,3.9-7.5,9.3-8,15.3L95.9,201.2l-0.5,6.1l-1.4,16l-1,10.9l-3.1,34.7h-5.4
			c-9.4,0-17.1,7.7-17.1,17.1v182.2c1.6,0.1,3.3,0.2,5.1,0.3c0.9,0.4,1.9,0.6,2.9,0.6h221.7l13.1,13.1c6,6,16.4,5.9,22.3,0l2.1-2.1
			c4.1,2,8.3,3.8,12.7,5.2v3c0,8.7,7.1,15.8,15.8,15.8h26.1c8.7,0,15.8-7.1,15.8-15.8v-3c4.4-1.4,8.6-3.2,12.7-5.2l2.2,2.2
			c6.2,6.1,16.2,6.1,22.3,0l18.5-18.5c3-3,4.6-7,4.6-11.2c0-4.2-1.6-8.2-4.6-11.2l-2.2-2.2c2.1-4.1,3.8-8.3,5.2-12.7h3
			c8.7,0,15.8-7.1,15.8-15.8v-26.1C482.7,375.8,475.5,368.7,466.8,368.7z M382.1,46.3l2.8,0.2l28,29c0,0.4-0.1,0.8-0.1,1.2l0,0.1
			l-33.1-3L382.1,46.3z M127.4,29.9c0.2-1.7,1-3.3,2.3-4.4c1.3-1.1,3-1.7,4.8-1.5l231.7,20.8l-2.6,28.7c-0.3,4,0.9,7.8,3.4,10.9
			c2.6,3.1,6.2,4.9,10.1,5.3l34.2,3.1l-10.7,119.4H295.5c-10.5,0-14.9,8.3-17.8,13.8l-24,42.8H105.9L127.4,29.9z M291.7,441.2
			c-3.2,3.2-4.7,7.5-4.6,11.8H83.4v-167c0-0.6,0.5-1.1,1.1-1.1h173.9c2.9,0,5.6-1.6,7-4.1l25-44.5l1.5-2.7c1-1.8,2.6-4.9,3.7-5.3
			H432c2.2,0,4.1,1.9,4.1,4.1v77c-5.5-1.9-11.8-0.7-16.3,3.7l-2.1,2.1c-4.1-2-8.3-3.8-12.7-5.2v-3c0-8.7-7.1-15.8-15.8-15.8h-26.1
			c-8.7,0-15.8,7.1-15.8,15.8v3c-4.4,1.4-8.6,3.2-12.7,5.2l-2.1-2.1c-6.2-6.1-16.2-6.2-22.3,0l-18.5,18.5c-6.2,6.2-6.2,16.2,0,22.3
			l2.1,2.1c-2,4.1-3.8,8.3-5.2,12.7h-3c-8.7,0-15.8,7.1-15.8,15.8v26.1c0,8.7,7.1,15.8,15.8,15.8h3c1.4,4.4,3.2,8.6,5.2,12.7
			L291.7,441.2z M457.8,410.4c-3.7,0-6.8,2.5-7.8,6c-1.8,7-4.6,13.7-8.3,20c-1.8,3.1-1.3,7.1,1.2,9.7l6.4,6.1l-18.2,18.5l-6.4-6.4
			c-2.6-2.6-6.6-3.1-9.8-1.2c-6.2,3.7-12.9,6.5-20,8.3c-3.5,0.9-6,4.1-6,7.8l0.2,8.8l-26,0.2v-9c0-3.6-2.5-6.8-6-7.7
			c-7.1-1.8-13.8-4.6-20-8.3c-1.3-0.8-2.7-1.1-4.1-1.1c-2.1,0-4.1,0.8-5.7,2.3l-6.1,6.4l-15-14.8c-0.3-0.4-0.7-0.8-1.1-1.1l-2.4-2.3
			l6.4-6.4c2.6-2.6,3.1-6.6,1.2-9.7c-3.7-6.2-6.5-12.9-8.3-20c-0.9-3.5-4.1-6-7.8-6l-8.8,0.2l-0.2-25.9h9c3.7,0,6.8-2.5,7.8-6
			c1.8-7.1,4.6-13.8,8.3-20c1.9-3.1,1.4-7.1-1.2-9.7l-6.4-6.1l18.2-18.5l6.4,6.4c2.6,2.6,6.6,3.1,9.7,1.2c6.2-3.7,12.9-6.5,20-8.3
			c3.5-0.9,6-4.1,6-7.8l-0.2-8.8l25.9-0.2v9c0,3.6,2.5,6.8,6,7.8c7.1,1.8,13.8,4.6,20,8.3c3.2,1.9,7.2,1.4,9.8-1.2l6.1-6.4l7.3,7.2
			c0.2,0.2,0.3,0.4,0.5,0.5l10.6,10.5L443,349c-2.6,2.6-3.1,6.6-1.2,9.7c3.7,6.3,6.5,13,8.3,20c0.9,3.5,4.1,6,7.8,6l8.8-0.2
			l0.2,25.9H457.8z"/>
		<path class="st2" d="M376.2,345.6c-28.7,0-52,23.3-52,52s23.3,52,52,52s52-23.3,52-52S404.9,345.6,376.2,345.6z M376.2,433.6
			c-19.9,0-36-16.1-36-36s16.1-36,36-36s36,16.1,36,36S396.1,433.6,376.2,433.6z"/>
	</g>
</g>
<g>
	<path class="st2" d="M1600.6,2517h-27.7c-4.1,0-7.5,3.4-7.5,7.5c0,4.1,3.4,7.5,7.5,7.5h27.7c4.1,0,7.5-3.4,7.5-7.5
		C1608.1,2520.4,1604.7,2517,1600.6,2517z"/>
	<path class="st2" d="M1642.5,2532h107.7c4.1,0,7.5-3.4,7.5-7.5c0-4.1-3.4-7.5-7.5-7.5h-107.7c-4.1,0-7.5,3.4-7.5,7.5
		C1635,2528.7,1638.3,2532,1642.5,2532z"/>
	<path class="st2" d="M1600.6,2560.1h-27.7c-4.1,0-7.5,3.4-7.5,7.5c0,4.1,3.4,7.5,7.5,7.5h27.7c4.1,0,7.5-3.4,7.5-7.5
		C1608.1,2563.4,1604.7,2560.1,1600.6,2560.1z"/>
	<path class="st2" d="M1642.5,2575.1h107.7c4.1,0,7.5-3.4,7.5-7.5c0-4.1-3.4-7.5-7.5-7.5h-107.7c-4.1,0-7.5,3.4-7.5,7.5
		C1635,2571.7,1638.3,2575.1,1642.5,2575.1z"/>
	<path class="st2" d="M1600.6,2603.1h-27.7c-4.1,0-7.5,3.4-7.5,7.5s3.4,7.5,7.5,7.5h27.7c4.1,0,7.5-3.4,7.5-7.5
		S1604.7,2603.1,1600.6,2603.1z"/>
	<path class="st2" d="M1642.5,2618.1h107.7c4.1,0,7.5-3.4,7.5-7.5s-3.4-7.5-7.5-7.5h-107.7c-4.1,0-7.5,3.4-7.5,7.5
		S1638.3,2618.1,1642.5,2618.1z"/>
	<path class="st2" d="M1760.1,2868.8v-36.7c0-7.1-5.8-13-13-13H1576c-7.1,0-13,5.8-13,13v36.7c0,7.1,5.8,13,13,13h171.1
		C1754.2,2881.7,1760.1,2875.9,1760.1,2868.8z M1745.1,2866.7h-167v-32.6h167V2866.7z"/>
	<path class="st2" d="M1600.6,2646.2h-27.7c-4.1,0-7.5,3.4-7.5,7.5s3.4,7.5,7.5,7.5h27.7c4.1,0,7.5-3.4,7.5-7.5
		S1604.7,2646.2,1600.6,2646.2z"/>
	<path class="st2" d="M1642.5,2661.2h107.7c4.1,0,7.5-3.4,7.5-7.5s-3.4-7.5-7.5-7.5h-107.7c-4.1,0-7.5,3.4-7.5,7.5
		S1638.3,2661.2,1642.5,2661.2z"/>
	<path class="st2" d="M1600.6,2689.2h-27.7c-4.1,0-7.5,3.4-7.5,7.5s3.4,7.5,7.5,7.5h27.7c4.1,0,7.5-3.4,7.5-7.5
		S1604.7,2689.2,1600.6,2689.2z"/>
	<path class="st2" d="M1642.5,2704.2h107.7c4.1,0,7.5-3.4,7.5-7.5s-3.4-7.5-7.5-7.5h-107.7c-4.1,0-7.5,3.4-7.5,7.5
		S1638.3,2704.2,1642.5,2704.2z"/>
	<path class="st2" d="M1604.7,2905.9c-4.1,0-7.5,3.4-7.5,7.5c0,4.1,3.4,7.5,7.5,7.5h113.7c4.1,0,7.5-3.4,7.5-7.5
		c0-4.1-3.4-7.5-7.5-7.5H1604.7z"/>
	<path class="st1" d="M1910,2742.4h-32l19.3-130.4c0.6-4.1-2.2-7.9-6.3-8.5c-4.1-0.6-7.9,2.2-8.5,6.3l-19.6,132.6h-63.2v-233.6
		l93.5,15.1c0.7,0.1,1.1,0.5,1.3,0.8s0.5,0.8,0.3,1.6l-7.9,53.4c-0.6,4.1,2.2,7.9,6.3,8.5c0.4,0.1,0.7,0.1,1.1,0.1
		c3.7,0,6.9-2.7,7.4-6.4l7.9-53.3c0.7-4.5-0.3-9-3-12.6c-2.7-3.7-6.6-6.1-11.1-6.8l-95.9-15.4v-15.3c0-9.4-7.6-17-17-17h-130.9
		c-4.1,0-7.5,3.4-7.5,7.5s3.4,7.5,7.5,7.5h130.9c1.1,0,2,0.9,2,2v264.1h-39.8c-9.5,0-18.1,6-21.4,14.8l-7.4,19.9
		c-1.1,3-4.1,5.1-7.3,5.1h-94.6c-3.2,0-6.2-2-7.3-5.1l-7.4-19.9c-3.3-8.9-11.9-14.8-21.4-14.8h-39.8v-264.1c0-1.1,0.9-2,2-2h81.5
		c4.1,0,7.5-3.4,7.5-7.5s-3.4-7.5-7.5-7.5h-81.5c-9.4,0-17,7.6-17,17v15.3l-95.9,15.4c-4.5,0.7-8.4,3.1-11.1,6.8
		c-2.7,3.7-3.7,8.2-3,12.5l31.6,214h-32c-4.1,0-7.5,3.4-7.5,7.5v138.5c0,38.8,31.6,70.4,70.4,70.4h32.5c4.1,0,7.5-3.4,7.5-7.5
		c0-4.1-3.4-7.5-7.5-7.5H1476c-30.6,0-55.4-24.9-55.4-55.4v-131h157.6c3.2,0,6.2,2,7.3,5.1l7.4,19.9c3.3,8.9,11.9,14.8,21.4,14.8
		h94.6c9.5,0,18.1-6,21.4-14.8l7.4-19.9c1.1-3,4.1-5.1,7.3-5.1h157.6v131c0,30.6-24.9,55.4-55.4,55.4h-308.7c-4.1,0-7.5,3.4-7.5,7.5
		c0,4.1,3.4,7.5,7.5,7.5h308.7c38.8,0,70.4-31.6,70.4-70.4v-138.5C1917.5,2745.8,1914.2,2742.4,1910,2742.4z M1428.3,2526.1
		c-0.1-0.7,0.1-1.2,0.3-1.5c0.2-0.3,0.6-0.7,1.3-0.8l93.5-15.1v233.6h-63.2L1428.3,2526.1z"/>
</g>
<g id="icons">
	<g>
		<g>
			<path class="st1" d="M2517.5,2816.8h-14v-251.4c0-19.4-17.1-36.5-36.5-36.5H2087c-20.2,0-36.5,16.3-36.5,36.5v251.4h-14
				c-4.7,0-7.8,3.1-7.8,7.8v24.8c0,23.3,18.6,41.9,41.9,41.9h412.7c23.3,0,41.9-18.6,41.9-41.9v-24.8
				C2525.3,2819.9,2522.2,2816.8,2517.5,2816.8z M2066.1,2565.4c0-11.6,9.3-20.9,20.9-20.9h380.1c10.9,0,20.9,10.1,20.9,20.9v252.1
				h-13.8c-0.1-0.1-0.3,0.1-0.4,0c-0.1,0-0.2,0-0.3,0c-0.4-0.1-0.8,0.1-1.2,0c-0.1,0-0.2,0-0.2,0c-0.2,0-0.5,0-0.7,0
				c-0.3,0-0.6,0-0.9,0l-404.6-0.8V2565.4z M2509.8,2849.3c0,14-12.4,26.4-26.4,26.4h-412.7c-14,0-26.4-12.4-26.4-26.4v-17.1
				l465.5,0.8V2849.3z"/>
		</g>
		<g>
			<path class="st2" d="M2291,2568.5h-27.9c-4.7,0-7.8-3.1-7.8-7.8s3.1-7.8,7.8-7.8h27.9c4.7,0,7.8,3.1,7.8,7.8
				S2295.7,2568.5,2291,2568.5z"/>
		</g>
		<g>
			<path class="st2" d="M2152.9,2699.6H2125c-4.7,0-7.8-3.1-7.8-7.8v-91.5c0-4.7,3.1-7.8,7.8-7.8h27.9c4.7,0,7.8,3.1,7.8,7.8v91.5
				C2160.7,2696.5,2157.6,2699.6,2152.9,2699.6z M2132.8,2684.1h12.4v-76h-12.4V2684.1z"/>
		</g>
		<g>
			<path class="st2" d="M2447.4,2748.5v27.9c0,4.7-3.1,7.8-7.8,7.8h-159.5c-4.7,0-7.8-3.1-7.8-7.8v-27.9c0-4.7,3.1-7.8,7.8-7.8
				h159.5C2444.3,2740.7,2447.4,2743.8,2447.4,2748.5z M2431.9,2768.7v-12.4h-144v12.4H2431.9z"/>
		</g>
		<g>
			<path class="st2" d="M2274,2698.8H2246c-4.7,0-7.8-3.1-7.8-7.8v-30.3c0-4.7,3.1-7.8,7.8-7.8h27.9c4.7,0,7.8,3.1,7.8,7.8v30.3
				C2281.7,2695.7,2278.6,2698.8,2274,2698.8z M2253.8,2683.3h12.4v-14.7h-12.4V2683.3z"/>
		</g>
		<g>
			<path class="st2" d="M2213.5,2698.8h-27.9c-4.7,0-7.8-3.1-7.8-7.8v-58.2c0-4.7,3.1-7.8,7.8-7.8h27.9c4.7,0,7.8,3.1,7.8,7.8v58.2
				C2221.2,2695.7,2218.1,2698.8,2213.5,2698.8z M2193.3,2683.3h12.4v-42.7h-12.4V2683.3z"/>
		</g>
		<g>
			<path class="st2" d="M2412.8,2631.4h-61.3c-4.7,0-7.8-3.1-7.8-7.8s3.1-7.8,7.8-7.8h61.3c4.7,0,7.8,3.1,7.8,7.8
				S2417.5,2631.4,2412.8,2631.4z"/>
		</g>
		<g>
			<path class="st2" d="M2439.2,2662.4h-108.6c-4.7,0-7.8-3.1-7.8-7.8s3.1-7.8,7.8-7.8h108.6c4.7,0,7.8,3.1,7.8,7.8
				S2443.9,2662.4,2439.2,2662.4z"/>
		</g>
		<g>
			<path class="st2" d="M2217.3,2753.1h-94.6c-4.7,0-7.8-3.1-7.8-7.8s3.1-7.8,7.8-7.8h94.6c4.7,0,7.8,3.1,7.8,7.8
				S2222,2753.1,2217.3,2753.1z"/>
		</g>
		<g>
			<path class="st2" d="M2217.3,2784.2h-94.6c-4.7,0-7.8-3.1-7.8-7.8s3.1-7.8,7.8-7.8h94.6c4.7,0,7.8,3.1,7.8,7.8
				S2222,2784.2,2217.3,2784.2z"/>
		</g>
		<g>
			<path class="st2" d="M2439.2,2691.9h-108.6c-4.7,0-7.8-3.1-7.8-7.8s3.1-7.8,7.8-7.8h108.6c4.7,0,7.8,3.1,7.8,7.8
				S2443.9,2691.9,2439.2,2691.9z"/>
		</g>
	</g>
</g>
</svg>
