<?xml version="1.0" encoding="utf-8"?>
<!-- Generator: Adobe Illustrator 24.0.2, SVG Export Plug-In . SVG Version: 6.00 Build 0)  -->
<svg version="1.1" id="Instructor" xmlns="http://www.w3.org/2000/svg" xmlns:xlink="http://www.w3.org/1999/xlink" x="0px" y="0px"
	 viewBox="0 0 47.7 47.7" style="enable-background:new 0 0 47.7 47.7;" xml:space="preserve">
<style type="text/css">
	.st0{fill:#E21928;}
	.st1{fill:#FEFEFE;}
	.st2{fill:#E11928;}
	.st3{fill:#FE0000;}
</style>
<g>
	<path d="M45,31.6c-2.4,1.7-4.8,3.4-7.2,5.1c-0.4,0.3-0.9,0.4-1.4,0.1c-0.5-0.3-0.7-0.7-0.7-1.3v-1.3c0-0.2,0-0.2-0.2-0.2h-7.9
		c-0.2,0-0.2,0.1-0.2,0.2c0,0.9,0,1.8,0,2.8c0,0.2,0.1,0.2,0.2,0.2c0.4,0,0.9,0,1.3,0c0.5,0,1,0.2,1.2,0.7c0.2,0.5,0.2,1-0.1,1.4
		c-1.7,2.4-3.4,4.8-5.1,7.2c-0.6,0.8-1.7,0.8-2.2,0c-1.7-2.4-3.4-4.8-5.1-7.2c-0.3-0.5-0.4-0.9-0.1-1.4c0.3-0.5,0.7-0.7,1.3-0.7
		c0.4,0,0.8,0,1.3,0c0.2,0,0.2,0,0.2-0.2v-2.8c0-0.2,0-0.2-0.2-0.2h-7.9c-0.2,0-0.3,0-0.2,0.2c0,0.4,0,0.9,0,1.3
		c0,0.5-0.2,1-0.7,1.2c-0.5,0.3-1,0.2-1.4-0.1C7.4,35,5,33.3,2.6,31.6c-0.8-0.5-0.8-1.6,0-2.2C5,27.7,7.4,26,9.8,24.3
		c0.5-0.3,0.9-0.4,1.4-0.1c0.5,0.3,0.7,0.7,0.7,1.3v1.3c0,0.2,0,0.2,0.2,0.2c2.6,0,5.3,0,7.9,0c0.2,0,0.2-0.1,0.2-0.3V24
		c0.9,0.2,1.8,0.4,2.7,0.5c0,0,0,0,0,0c0.1,0.1,0,0.2,0,0.4c0,1.1,0,2.2,0,3.4c0,0.9-0.6,1.5-1.5,1.5H10.8c-1,0-1.5-0.5-1.6-1.4
		c0,0,0-0.1,0-0.1c-0.1,0-0.1,0-0.2,0.1l-2.7,1.9c-0.3,0.2-0.3,0.2,0,0.4C7.1,31.4,8,32,8.9,32.6c0.3,0.2,0.3,0.2,0.3-0.1
		c0.2-0.7,0.6-1.2,1.4-1.3c0.1,0,0.2,0,0.4,0h10.2c0.2,0,0.4,0,0.6,0.1c0.7,0.2,1.2,0.7,1.2,1.4c0,1.9,0,3.9,0,5.8
		c0,0.8-0.4,1.3-1.2,1.5c-0.3,0.1-0.3,0.1-0.1,0.3c0.6,0.9,1.2,1.8,1.9,2.7c0.2,0.3,0.2,0.3,0.4,0c0.6-0.9,1.3-1.8,1.9-2.7
		c0.2-0.3,0.2-0.3-0.1-0.3c-0.8-0.2-1.3-0.7-1.3-1.6c0-1.1,0-2.2,0-3.4c0-0.7,0-1.4,0-2.1c0-1.1,0.6-1.7,1.7-1.7h10.5
		c0.9,0,1.6,0.5,1.7,1.4c0,0,0,0.1,0.1,0.1c0.1,0,0.2-0.1,0.2-0.1c0.9-0.6,1.8-1.3,2.7-1.9c0.2-0.1,0.2-0.2,0-0.4
		c-0.9-0.7-1.9-1.3-2.8-2c0,0-0.1-0.1-0.1,0c0,0,0,0.1-0.1,0.2c-0.2,0.9-0.7,1.3-1.6,1.3h-6.4c-1.5,0-2.9,0-4.4,0
		c-0.8,0-1.4-0.5-1.5-1.3v-3.6c0-0.4,0-0.5,0.5-0.5c0.6-0.1,1.2-0.2,1.8-0.3c0.2,0,0.3-0.1,0.5,0c0,0.9,0,1.8,0,2.7
		c0,0.2,0,0.3,0.3,0.3c2.6,0,5.2,0,7.8,0c0.2,0,0.3,0,0.3-0.3c0-0.4,0-0.9,0-1.3c0-0.5,0.2-1,0.7-1.2c0.5-0.2,1-0.2,1.4,0.1
		c2.4,1.7,4.8,3.4,7.2,5.1C45.8,30,45.8,31,45,31.6z"/>
	<path d="M23,24.5C23,24.5,23,24.5,23,24.5c-0.9-0.1-1.8-0.3-2.7-0.5c0.1-0.1,0.2-0.1,0.3,0c0.7,0.2,1.5,0.3,2.2,0.4
		C22.9,24.4,23,24.4,23,24.5C23,24.5,23,24.5,23,24.5z"/>
	<path class="st2" d="M23.9,9c1.6,0,2.8,1.3,2.8,2.9c0,1.6-1.3,2.8-2.9,2.8c-1.6,0-2.8-1.3-2.8-2.9C21,10.3,22.3,9,23.9,9z
		 M28.7,20.5c-1.5,0.9-3.1,1.3-4.7,1.3c-1.8,0-3.4-0.4-4.8-1.3c-0.2-0.1-0.3-0.3-0.2-0.5c0.3-1.3,1-2.4,2-3.2c0.1-0.1,0.3-0.1,0.4,0
		c1.7,0.8,3.3,0.8,5,0c0.2-0.1,0.3-0.1,0.4,0c1.1,0.8,1.8,1.9,2.1,3.3C28.9,20.3,28.8,20.4,28.7,20.5z M34.8,7.6
		c-0.1-0.2-0.2-0.2-0.3-0.1c-0.6,0.3-1.3,0.6-1.9,0.9c-0.2,0.1-0.3,0.2-0.2,0.4c1,2.5,1,4.9,0,7.4c-0.3,0.7-0.7,1.4-1.2,2
		c-0.7-1.6-1.2-2.3-2.4-3.3c-0.1-0.1-0.1-0.2-0.1-0.3c0.5-0.9,0.7-1.9,0.7-2.9c0-3.2-3-5.8-6.2-5.4c-3.9,0.5-6.1,4.7-4.2,8.2
		c0.1,0.2,0.1,0.3-0.1,0.4c-1,0.8-1.8,1.8-2.3,3c0,0.1,0,0.2-0.1,0.2c0,0-0.1-0.1-0.1-0.1c-3-4-2.3-9.9,1.8-12.9
		c2.7-2,5.6-2.5,8.8-1.4c0.2,0.1,0.3,0.1,0.4-0.2c0.2-0.7,0.5-1.3,0.8-2c0.1-0.2,0.1-0.3-0.1-0.3c-2.2-0.8-4.5-1-6.8-0.5
		c-5.7,1.3-9.6,6.4-9.3,12.3c0.2,4.1,2.1,7.3,5.5,9.5c0.9,0.6,1.9,1,2.9,1.4c0.9,0.2,1.8,0.4,2.7,0.5c0,0,1.6-0.1,2.1-0.1
		c0.6-0.1,1.2-0.2,1.8-0.3c0.2,0,0.3-0.1,0.5,0c0.1,0,0.1-0.1,0.2-0.1c1.9-0.6,3.5-1.6,4.9-3C35.8,17.5,36.8,12,34.8,7.6z"/>
	<path class="st3" d="M29.8,4.8c0-0.8,0.6-1.3,1.4-1.3c0.7,0,1.3,0.6,1.3,1.3c0,0.8-0.6,1.4-1.4,1.3C30.4,6.1,29.8,5.5,29.8,4.8z"/>
</g>
</svg>
